C:\GBW_MyPrograms\KinderuniversiteitApp\Resultaten\Ellis_v10102025\Aarde\Aarde_v5.mot
version=1
nRows=14
nColumns=29
inDegrees=yes
endheader
                time	         pelvis_tilt	           pelvis_tx	           pelvis_ty	       hip_flexion_l	       hip_flexion_r	        knee_angle_l	        knee_angle_r	       ankle_angle_l	       ankle_angle_r	    lumbar_extension	hamstrings_r/activation	bifemsh_r/activation	glut_max_r/activation	iliopsoas_r/activation	rect_fem_r/activation	  vasti_r/activation	gastroc_r/activation	 soleus_r/activation	tib_ant_r/activation	hamstrings_l/activation	bifemsh_l/activation	glut_max_l/activation	iliopsoas_l/activation	rect_fem_l/activation	  vasti_l/activation	gastroc_l/activation	 soleus_l/activation	tib_ant_l/activation	
          0.47129756	         -8.10589630	          0.62682576	          0.89224572	         30.99533306	         -9.37793524	         -8.29141907	         -9.25528847	          9.26572041	          5.86830879	          1.72680007	          0.05000168	          0.16362651	          0.05000141	          0.64975146	          0.05000169	          0.05000039	          0.18590213	          0.31965384	          0.05000023	          0.26838207	          0.05000460	          0.05688221	          0.05000147	          0.07745939	          0.06695684	          0.05000436	          0.05325198	          0.22337723	
          0.48072351	         -8.12098057	          0.64208135	          0.89176384	         30.15869549	         -8.80731868	         -7.87285735	        -12.00042853	          9.09895892	          5.15048920	          2.06506003	          0.05000047	          0.14141109	          0.05000090	          0.56724106	          0.05000193	          0.05000023	          0.16066224	          0.27625457	          0.05000014	          0.24358809	          0.05000311	          0.06096763	          0.05000212	          0.06694299	          0.08293347	          0.05000113	          0.05000064	          0.24193674	
          0.49014947	         -8.13225199	          0.65749507	          0.89122253	         29.29691458	         -8.03430183	         -7.96672463	        -15.09838756	          8.83665084	          4.21616779	          2.42093420	          0.05382443	          0.12221186	          0.05000059	          0.49022694	          0.05000055	          0.05000019	          0.13884917	          0.23874755	          0.05000010	          0.21446907	          0.05921608	          0.10798608	          0.05000051	          0.05785432	          0.07564221	          0.06330336	          0.05786278	          0.23049067	
          0.49957542	         -8.14226831	          0.67286137	          0.89073092	         28.42540295	         -7.04047404	         -8.19859508	        -18.51940055	          8.54030925	          2.93023326	          2.77127388	          0.05000109	          0.10561933	          0.06135489	          0.42366898	          0.05000074	          0.05000026	          0.11999766	          0.20633285	          0.05000034	          0.18535081	          0.06693107	          0.15360464	          0.05000047	          0.05000067	          0.11274354	          0.05470892	          0.05000690	          0.28602336	
          0.50900137	         -8.15569552	          0.68787616	          0.89051066	         27.62286062	         -5.80810686	         -8.47836441	        -22.21540271	          8.14655522	          1.24303660	          3.08266939	          0.05000205	          0.09127963	          0.05302525	          0.36614756	          0.06676379	          0.05000060	          0.10370562	          0.17831908	          0.25403407	          0.16018728	          0.05784538	          0.21096535	          0.05000028	          0.05000058	          0.19126460	          0.05000089	          0.05000081	          0.30699790	
          0.51842732	         -8.17515238	          0.70230378	          0.89062923	         26.91950287	         -4.38568678	         -8.85428820	        -26.04543609	          7.80154428	         -0.22231902	          3.32829684	          0.05000119	          0.07888718	          0.05000228	          0.31643582	          0.16565059	          0.05000022	          0.08962560	          0.15410874	          0.22848695	          0.13843897	          0.05000264	          0.22628595	          0.05000028	          0.05000090	          0.24103930	          0.05000059	          0.05000048	          0.33144167	
          0.52785327	         -8.20221670	          0.71611150	          0.89114947	         26.28296866	         -2.89045702	         -9.26939719	        -29.67023300	          7.54474336	         -0.56096173	          3.50638733	          0.05000231	          0.08367063	          0.05000020	          0.27347345	          0.23510255	          0.05000010	          0.07745744	          0.13318545	          0.29978409	          0.12462756	          0.05000648	          0.22022551	          0.05000049	          0.05000111	          0.26563538	          0.05000121	          0.05000139	          0.33231247	
          0.53727922	         -8.23535322	          0.72940812	          0.89215363	         25.65997396	         -1.39617520	         -9.64842878	        -32.87792956	          7.40434992	         -0.46212963	          3.62974381	          0.05326259	          0.12976851	          0.05000026	          0.23634412	          0.30643212	          0.05000009	          0.06695532	          0.11510291	          0.29963926	          0.11448671	          0.05000820	          0.21387856	          0.05000048	          0.05000105	          0.27033911	          0.05000160	          0.05000197	          0.32869795	
          0.54670517	         -8.27327272	          0.74231346	          0.89360467	         25.00436108	          0.05874910	         -9.92218549	        -35.58535709	          7.35855222	         -0.16854925	          3.71244700	          0.06859768	          0.17555086	          0.05000023	          0.20425598	          0.35809888	          0.05000010	          0.07111188	          0.09947544	          0.29299180	          0.10934744	          0.05001178	          0.19998973	          0.05000051	          0.05000104	          0.26120458	          0.05000247	          0.05000364	          0.31832738	
          0.55613112	         -8.31394914	          0.75492393	          0.89540701	         24.29029793	          1.46174163	        -10.05662786	        -37.79469829	          7.38021412	          0.25118427	          3.76436301	          0.07690075	          0.22630784	          0.05000024	          0.17652545	          0.39200233	          0.05000011	          0.07225468	          0.08596972	          0.27925369	          0.10681369	          0.05001433	          0.18402770	          0.05000048	          0.05000099	          0.24518692	          0.05000237	          0.05000308	          0.30623750	
          0.56555708	         -8.35545542	          0.76730474	          0.89744819	         23.51152811	          2.81759190	        -10.04859852	        -39.55579102	          7.43921920	          0.75237032	          3.79128624	          0.07746437	          0.28099987	          0.05000026	          0.15712058	          0.40848540	          0.05000013	          0.07037246	          0.07429766	          0.26382726	          0.10573697	          0.05001028	          0.16974113	          0.05000045	          0.05000098	          0.22713351	          0.05000208	          0.05000301	          0.29344217	
          0.57498303	         -8.39611832	          0.77949660	          0.89962045	         22.67255905	          4.13958817	         -9.91203344	        -40.93890777	          7.51474593	          1.31240923	          3.79609310	          0.06695357	          0.33811541	          0.05000028	          0.14338236	          0.41026789	          0.05000016	          0.06663089	          0.06421034	          0.24699226	          0.10550288	          0.05000754	          0.16042508	          0.05000040	          0.05000094	          0.20971158	          0.05000155	          0.05000248	          0.28170113	
          0.58440898	         -8.43435582	          0.79152454	          0.90183052	         21.78073940	          5.44417198	         -9.66449853	        -42.01824773	          7.59189280	          1.91746216	          3.77974968	          0.05786503	          0.39748681	          0.05000031	          0.13481852	          0.40200036	          0.05000019	          0.06293596	          0.05549262	          0.23045379	          0.10398727	          0.05000527	          0.15267639	          0.05000036	          0.05000098	          0.19427482	          0.05000122	          0.05000223	          0.27136987	
          0.59383493	         -8.46854521	          0.80340233	          0.90400129	         20.84406768	          6.74993827	         -9.32419683	        -42.86997106	          7.66263319	          2.54146071	          3.74176384	          0.05001108	          0.45586114	          0.05000032	          0.12936738	          0.38660497	          0.05000022	          0.05784986	          0.05000038	          0.21692407	          0.10138039	          0.05000402	          0.14578328	          0.05000034	          0.05000106	          0.18154932	          0.05000097	          0.05000195	          0.26263708	
